{
  "accessors": [
    {
      "bufferView": 3,
      "componentType": 5126,
      "count": 3232,
      "max": [
        24.981111526489258,
        58.57233428955078,
        1.2434497928741312e-16
      ],
      "min": [
        -23.2552433013916,
        -3.000000106112566e-06,
        -13.323861122131348
      ],
      "type": "VEC3"
    },
    {
      "bufferView": 3,
      "byteOffset": 38784,
      "componentType": 5126,
      "count": 3232,
      "max": [
        1.0,
        1.0,
        1.0
      ],
      "min": [
        -1.0,
        -1.0,
        -1.0
      ],
      "type": "VEC3"
    },
    {
      "bufferView": 4,
      "componentType": 5126,
      "count": 3232,
      "max": [
        1.0,
        1.0,
        1.0,
        1.0
      ],
      "min": [
        -1.0,
        -1.0,
        -1.0,
        -1.0
      ],
      "type": "VEC4"
    },
    {
      "bufferView": 2,
      "componentType": 5126,
      "count": 3232,
      "max": [
        0.9981470108032227,
        1.0000040531158447
      ],
      "min": [
        0.001041000010445714,
        0.0018479999853298068
      ],
      "type": "VEC2"
    },
    {
      "bufferView": 1,
      "componentType": 5125,
      "count": 6366,
      "type": "SCALAR"
    },
    {
      "bufferView": 5,
      "componentType": 5126,
      "count": 15,
      "max": [
        100.0,
        0.08398287743330002,
        0.9943870306015015,
        0.0,
        0.6313834190368652,
        100.0,
        1.0,
        0.0,
        0.08445536345243454,
        0.0,
        100.0,
        0.0,
        33.97575378417969,
        0.0,
        2.8824069499969482,
        1.0
      ],
      "min": [
        -0.1058039739727974,
        -3.866108841558108e-17,
        -0.6313834190368652,
        0.0,
        -0.9943870306015015,
        -0.00892108865082264,
        -0.1058039739727974,
        0.0,
        -5.048710033215323e-33,
        -1.0000001192092896,
        6.123233601181349e-17,
        0.0,
        -15.78226375579834,
        -10.752034187316895,
        -34.64337921142578,
        1.0
      ],
      "type": "MAT4"
    },
    {
      "bufferView": 0,
      "componentType": 5123,
      "count": 3232,
      "type": "VEC4"
    },
    {
      "bufferView": 4,
      "byteOffset": 51712,
      "componentType": 5126,
      "count": 3232,
      "max": [
        1.0,
        0.0,
        0.0,
        0.0
      ],
      "min": [
        1.0,
        0.0,
        0.0,
        0.0
      ],
      "type": "VEC4"
    }
  ],
  "asset": {
    "extras": {
      "author": "Amine.Elouneg (https://sketchfab.com/Amine.Elouneg)",
      "license": "CC-BY-4.0 (http://creativecommons.org/licenses/by/4.0/)",
      "source": "https://sketchfab.com/3d-models/industrial-machine-control-lever-6b87918248984febb51d76997aa2325f",
      "title": "Industrial Machine Control Lever"
    },
    "generator": "Sketchfab-12.68.0",
    "version": "2.0"
  },
  "bufferViews": [
    {
      "buffer": 0,
      "byteLength": 25856,
      "byteStride": 8,
      "name": "shortBufferViews",
      "target": 34962
    },
    {
      "buffer": 0,
      "byteLength": 25464,
      "byteOffset": 25856,
      "name": "floatBufferViews",
      "target": 34963
    },
    {
      "buffer": 0,
      "byteLength": 25856,
      "byteOffset": 51320,
      "byteStride": 8,
      "name": "floatBufferViews",
      "target": 34962
    },
    {
      "buffer": 0,
      "byteLength": 77568,
      "byteOffset": 77176,
      "byteStride": 12,
      "name": "floatBufferViews",
      "target": 34962
    },
    {
      "buffer": 0,
      "byteLength": 103424,
      "byteOffset": 154744,
      "byteStride": 16,
      "name": "floatBufferViews",
      "target": 34962
    },
    {
      "buffer": 0,
      "byteLength": 960,
      "byteOffset": 258168,
      "name": "floatBufferViews"
    }
  ],
  "buffers": [
    {
      "byteLength": 259128,
      "uri": "scene.bin"
    }
  ],
  "images": [
    {
      "uri": "textures/control_lever01_baseColor.png"
    },
    {
      "uri": "textures/control_lever01_metallicRoughness.png"
    },
    {
      "uri": "textures/control_lever01_normal.png"
    }
  ],
  "materials": [
    {
      "doubleSided": true,
      "name": "control_lever01",
      "normalTexture": {
        "index": 2
      },
      "occlusionTexture": {
        "index": 1
      },
      "pbrMetallicRoughness": {
        "baseColorTexture": {
          "index": 0
        },
        "metallicRoughnessTexture": {
          "index": 1
        }
      }
    }
  ],
  "meshes": [
    {
      "name": "control_lever01_reference_control_lever01_0",
      "primitives": [
        {
          "attributes": {
            "JOINTS_0": 6,
            "NORMAL": 1,
            "POSITION": 0,
            "TANGENT": 2,
            "TEXCOORD_0": 3,
            "WEIGHTS_0": 7
          },
          "indices": 4,
          "material": 0,
          "mode": 4
        }
      ]
    }
  ],
  "nodes": [
    {
      "children": [
        1
      ],
      "matrix": [
        1.0,
        0.0,
        0.0,
        0.0,
        0.0,
        2.220446049250313e-16,
        -1.0,
        0.0,
        0.0,
        1.0,
        2.220446049250313e-16,
        0.0,
        0.0,
        0.0,
        0.0,
        1.0
      ],
      "name": "Sketchfab_model"
    },
    {
      "children": [
        2
      ],
      "matrix": [
        0.009999999776482582,
        0.0,
        0.0,
        0.0,
        0.0,
        0.0,
        0.009999999776482582,
        0.0,
        0.0,
        -0.009999999776482582,
        0.0,
        0.0,
        0.0,
        0.0,
        0.0,
        1.0
      ],
      "name": "machine_lever.fbx"
    },
    {
      "children": [
        3,
        22,
        25
      ],
      "name": "RootNode"
    },
    {
      "children": [
        4
      ],
      "matrix": [
        100.0,
        0.0,
        0.0,
        0.0,
        0.0,
        -1.629206793918314e-05,
        -99.99999999999868,
        0.0,
        0.0,
        99.99999999999868,
        -1.629206793918314e-05,
        0.0,
        0.0,
        0.0,
        0.0,
        1.0
      ],
      "name": "control_lever01_reference_skeleton"
    },
    {
      "children": [
        5,
        21,
        20
      ],
      "name": "Object_4"
    },
    {
      "children": [
        6
      ],
      "name": "_rootJoint"
    },
    {
      "children": [
        7,
        9,
        11,
        13,
        15,
        17
      ],
      "name": "Object01_00",
      "rotation": [
        -1.3234889800848443e-23,
        -0.0,
        0.0,
        1.0
      ]
    },
    {
      "children": [
        8
      ],
      "name": "red_dark01_01",
      "rotation": [
        -4.5875213433425526e-18,
        0.743573784828186,
        -4.5875213433425526e-18,
        0.6686539053916931
      ],
      "scale": [
        0.9999999403953552,
        0.9999998211860657,
        0.9999999403953552
      ],
      "translation": [
        0.7921339869499207,
        10.752032279968262,
        34.04458236694336
      ]
    },
    {
      "name": "red_dark01_end_09",
      "rotation": [
        -1.6543612251060553e-24,
        -1.5858517486301525e-18,
        -1.3234889800848443e-23,
        1.0
      ],
      "translation": [
        -7.105427357601002e-15,
        0.11160469055175781,
        0.0
      ]
    },
    {
      "children": [
        10
      ],
      "name": "red_glow01_02",
      "rotation": [
        -4.5875213433425526e-18,
        0.743573784828186,
        -4.5875213433425526e-18,
        0.6686539053916931
      ],
      "scale": [
        0.9999999403953552,
        0.9999998211860657,
        0.9999999403953552
      ],
      "translation": [
        0.7921339869499207,
        10.752032279968262,
        32.64458465576172
      ]
    },
    {
      "name": "red_glow01_end_08",
      "rotation": [
        -1.6543612251060553e-24,
        -1.5858517486301525e-18,
        -1.3234889800848443e-23,
        1.0
      ],
      "translation": [
        0.0,
        0.11160469055175781,
        0.0
      ]
    },
    {
      "children": [
        12
      ],
      "name": "green_glow_03",
      "rotation": [
        -4.5875213433425526e-18,
        0.743573784828186,
        -4.5875213433425526e-18,
        0.6686539053916931
      ],
      "scale": [
        0.9999999403953552,
        0.9999998211860657,
        0.9999999403953552
      ],
      "translation": [
        0.794471025466919,
        8.372879028320313,
        34.08300018310547
      ]
    },
    {
      "name": "green_glow_end_011",
      "rotation": [
        -1.6543612251060553e-24,
        -1.5858517486301525e-18,
        -1.3234889800848443e-23,
        1.0
      ],
      "translation": [
        -7.105427357601002e-15,
        0.11160469055175781,
        -4.440892098500626e-16
      ]
    },
    {
      "children": [
        14
      ],
      "name": "green_dark01_04",
      "rotation": [
        -4.5875213433425526e-18,
        0.743573784828186,
        -4.5875213433425526e-18,
        0.6686539053916931
      ],
      "scale": [
        0.9999999403953552,
        0.9999998211860657,
        0.9999999403953552
      ],
      "translation": [
        0.794471025466919,
        8.372879028320313,
        32.68299865722656
      ]
    },
    {
      "name": "green_dark01_end_010",
      "rotation": [
        -1.6543612251060553e-24,
        -1.5858517486301525e-18,
        -1.3234889800848443e-23,
        1.0
      ],
      "translation": [
        0.0,
        0.11160469055175781,
        -4.440892098500626e-16
      ]
    },
    {
      "children": [
        16
      ],
      "name": "Object05_05",
      "rotation": [
        -0.0022317033726722,
        0.05292944237589836,
        -0.04220648854970932,
        0.9977034330368042
      ],
      "scale": [
        0.9999999403953552,
        0.9999998807907104,
        1.0
      ],
      "translation": [
        -0.6324329972267151,
        9.47754192352295,
        34.90636444091797
      ]
    },
    {
      "name": "Object05_end_013",
      "rotation": [
        -7.369186641112413e-19,
        -1.4746843611697369e-18,
        -1.0867224294189418e-36,
        1.0
      ],
      "translation": [
        0.0,
        0.11160478740930557,
        0.0
      ]
    },
    {
      "children": [
        18
      ],
      "name": "Object07_06",
      "rotation": [
        -2.6442363529796835e-23,
        -0.33505910634994507,
        4.64354570489708e-24,
        0.9421971440315247
      ],
      "scale": [
        1.0,
        0.9999999403953552,
        1.0
      ],
      "translation": [
        10.552123069763184,
        6.03134298324585,
        4.874495029449463
      ]
    },
    {
      "children": [
        19
      ],
      "name": "Object08_07",
      "rotation": [
        -1.3234889800848443e-23,
        -1.4901161193847656e-08,
        1.3234889800848443e-23,
        1.0
      ],
      "translation": [
        4.521725654602051,
        -0.43869447708129883,
        36.95322799682617
      ]
    },
    {
      "name": "Object08_end_012",
      "rotation": [
        -2.6469779601696886e-23,
        -8.648234846479478e-17,
        -1.9852334701272664e-23,
        1.0
      ],
      "translation": [
        1.7763568394002505e-15,
        0.11160469055175781,
        0.0
      ]
    },
    {
      "matrix": [
        100.0,
        0.0,
        0.0,
        0.0,
        0.0,
        6.123233995736766e-15,
        -100.0,
        0.0,
        0.0,
        100.0,
        6.123233995736766e-15,
        0.0,
        0.0,
        0.0,
        0.0,
        1.0
      ],
      "name": "Object_20"
    },
    {
      "mesh": 0,
      "name": "Object_21",
      "skin": 0
    },
    {
      "children": [
        23
      ],
      "matrix": [
        -29.08647719990347,
        -5.518906457566863,
        -95.51711910171437,
        0.0,
        56.63930913109449,
        79.46723428563203,
        -21.83912397841966,
        0.0,
        77.11008775993375,
        -60.45246356562044,
        -19.98834696773717,
        0.0,
        407.6245422363281,
        590.38623046875,
        -100.54539489746094,
        1.0
      ],
      "name": "Lamp"
    },
    {
      "children": [
        24
      ],
      "matrix": [
        1.0,
        0.0,
        0.0,
        0.0,
        0.0,
        2.220446049250313e-16,
        1.0,
        0.0,
        0.0,
        -1.0,
        2.220446049250313e-16,
        0.0,
        0.0,
        0.0,
        0.0,
        1.0
      ],
      "name": "Object_23"
    },
    {
      "name": "Object_24"
    },
    {
      "children": [
        26
      ],
      "matrix": [
        -65.15583280329096,
        -44.52713576570858,
        -61.41703047373549,
        0.0,
        -32.40134137821245,
        89.53957451233616,
        -30.542088974418615,
        0.0,
        68.59205472129975,
        -1.0718647115348782e-05,
        -72.7676336239627,
        0.0,
        748.1131591796875,
        534.3665161132813,
        650.7639770507813,
        1.0
      ],
      "name": "Camera"
    },
    {
      "name": "Object_26"
    }
  ],
  "samplers": [
    {
      "magFilter": 9729,
      "minFilter": 9987,
      "wrapS": 10497,
      "wrapT": 10497
    }
  ],
  "scene": 0,
  "scenes": [
    {
      "name": "Sketchfab_Scene",
      "nodes": [
        0
      ]
    }
  ],
  "skins": [
    {
      "inverseBindMatrices": 5,
      "joints": [
        5,
        6,
        7,
        8,
        9,
        10,
        11,
        12,
        13,
        14,
        15,
        16,
        17,
        18,
        19
      ],
      "skeleton": 5
    }
  ],
  "textures": [
    {
      "sampler": 0,
      "source": 0
    },
    {
      "sampler": 0,
      "source": 1
    },
    {
      "sampler": 0,
      "source": 2
    }
  ]
}
