{
  "accessors": [
    {
      "bufferView": 2,
      "componentType": 5126,
      "count": 5463,
      "max": [
        0.29445695877075195,
        0.03474173694849014,
        0.3025502562522888
      ],
      "min": [
        -0.30122432112693787,
        -0.03492359817028046,
        -0.29713889956474304
      ],
      "type": "VEC3"
    },
    {
      "bufferView": 2,
      "byteOffset": 65556,
      "componentType": 5126,
      "count": 5463,
      "max": [
        0.9999437928199768,
        0.999996542930603,
        0.9994522929191589
      ],
      "min": [
        -0.9985945820808411,
        -1.0,
        -0.9974794387817383
      ],
      "type": "VEC3"
    },
    {
      "bufferView": 3,
      "componentType": 5126,
      "count": 5463,
      "max": [
        0.9668388366699219,
        0.9998292326927185,
        0.9725990295410156,
        1.0
      ],
      "min": [
        -0.9252769947052002,
        -0.9999940395355225,
        -0.9939704537391663,
        1.0
      ],
      "type": "VEC4"
    },
    {
      "bufferView": 1,
      "componentType": 5126,
      "count": 5463,
      "max": [
        0.9995602965354919,
        0.9082882404327393
      ],
      "min": [
        0.0004396754957269877,
        0.0004397057637106627
      ],
      "type": "VEC2"
    },
    {
      "bufferView": 1,
      "byteOffset": 43704,
      "componentType": 5126,
      "count": 5463,
      "max": [
        0.9995602965354919,
        0.9082882404327393
      ],
      "min": [
        0.0004396754957269877,
        0.0004397057637106627
      ],
      "type": "VEC2"
    },
    {
      "bufferView": 1,
      "byteOffset": 87408,
      "componentType": 5126,
      "count": 5463,
      "max": [
        0.9995602965354919,
        0.9082882404327393
      ],
      "min": [
        0.0004396754957269877,
        0.0004397057637106627
      ],
      "type": "VEC2"
    },
    {
      "bufferView": 0,
      "componentType": 5125,
      "count": 30042,
      "type": "SCALAR"
    }
  ],
  "asset": {
    "extras": {
      "author": "UmangRank (https://sketchfab.com/UmangRank)",
      "license": "CC-BY-4.0 (http://creativecommons.org/licenses/by/4.0/)",
      "source": "https://sketchfab.com/3d-models/pizza-2501aea8a37f411d93877a512b53d61d",
      "title": "Pizza"
    },
    "generator": "Sketchfab-16.16.0",
    "version": "2.0"
  },
  "bufferViews": [
    {
      "buffer": 0,
      "byteLength": 120168,
      "name": "floatBufferViews",
      "target": 34963
    },
    {
      "buffer": 0,
      "byteLength": 131112,
      "byteOffset": 120168,
      "byteStride": 8,
      "name": "floatBufferViews",
      "target": 34962
    },
    {
      "buffer": 0,
      "byteLength": 131112,
      "byteOffset": 251280,
      "byteStride": 12,
      "name": "floatBufferViews",
      "target": 34962
    },
    {
      "buffer": 0,
      "byteLength": 87408,
      "byteOffset": 382392,
      "byteStride": 16,
      "name": "floatBufferViews",
      "target": 34962
    }
  ],
  "buffers": [
    {
      "byteLength": 469800,
      "uri": "scene.bin"
    }
  ],
  "images": [
    {
      "uri": "textures/base_material_baseColor.jpeg"
    },
    {
      "uri": "textures/base_material_metallicRoughness.png"
    },
    {
      "uri": "textures/base_material_normal.png"
    }
  ],
  "materials": [
    {
      "doubleSided": true,
      "name": "base_material",
      "normalTexture": {
        "index": 2
      },
      "pbrMetallicRoughness": {
        "baseColorTexture": {
          "index": 0
        },
        "metallicRoughnessTexture": {
          "index": 1
        }
      }
    }
  ],
  "meshes": [
    {
      "name": "mesh_base_material_0",
      "primitives": [
        {
          "attributes": {
            "NORMAL": 1,
            "POSITION": 0,
            "TANGENT": 2,
            "TEXCOORD_0": 3,
            "TEXCOORD_1": 4,
            "TEXCOORD_2": 5
          },
          "indices": 6,
          "material": 0,
          "mode": 4
        }
      ]
    }
  ],
  "nodes": [
    {
      "children": [
        1
      ],
      "matrix": [
        1.0,
        0.0,
        0.0,
        0.0,
        0.0,
        2.220446049250313e-16,
        -1.0,
        0.0,
        0.0,
        1.0,
        2.220446049250313e-16,
        0.0,
        0.0,
        0.0,
        0.0,
        1.0
      ],
      "name": "Sketchfab_model"
    },
    {
      "children": [
        2
      ],
      "matrix": [
        0.009999999776482582,
        0.0,
        0.0,
        0.0,
        0.0,
        0.0,
        0.009999999776482582,
        0.0,
        0.0,
        -0.009999999776482582,
        0.0,
        0.0,
        0.0,
        0.0,
        0.0,
        1.0
      ],
      "name": "59b2b0a1bc07_pizza__photo_realis.fbx"
    },
    {
      "children": [
        3
      ],
      "name": "RootNode"
    },
    {
      "children": [
        4
      ],
      "matrix": [
        166.68028259277344,
        0.0,
        0.0,
        0.0,
        0.0,
        166.68028259277327,
        7.285826552155924e-06,
        0.0,
        0.0,
        -7.285826552155924e-06,
        166.68028259277327,
        0.0,
        0.0,
        0.0,
        0.0,
        1.0
      ],
      "name": "mesh"
    },
    {
      "mesh": 0,
      "name": "mesh_base_material_0"
    }
  ],
  "samplers": [
    {
      "magFilter": 9729,
      "minFilter": 9987,
      "wrapS": 10497,
      "wrapT": 10497
    }
  ],
  "scene": 0,
  "scenes": [
    {
      "name": "Sketchfab_Scene",
      "nodes": [
        0
      ]
    }
  ],
  "textures": [
    {
      "sampler": 0,
      "source": 0
    },
    {
      "sampler": 0,
      "source": 1
    },
    {
      "sampler": 0,
      "source": 2
    }
  ]
}
