{
  "accessors": [
    {
      "bufferView": 2,
      "componentType": 5126,
      "count": 5667,
      "max": [
        0.03735699877142906,
        0.025522999465465546,
        0.14559899270534515
      ],
      "min": [
        -0.04656299948692322,
        -0.028449000790715218,
        4.8999998398358e-05
      ],
      "type": "VEC3"
    },
    {
      "bufferView": 2,
      "byteOffset": 68004,
      "componentType": 5126,
      "count": 5667,
      "max": [
        0.9995672106742859,
        0.9999462366104126,
        0.9999710321426392
      ],
      "min": [
        -0.9996303915977478,
        -0.9999254941940308,
        -0.999992847442627
      ],
      "type": "VEC3"
    },
    {
      "bufferView": 3,
      "componentType": 5126,
      "count": 5667,
      "max": [
        0.9991981387138367,
        0.9991956949234009,
        0.9992651343345642,
        1.0
      ],
      "min": [
        -0.9998650550842285,
        -0.9999774098396301,
        -0.9994155168533325,
        1.0
      ],
      "type": "VEC4"
    },
    {
      "bufferView": 1,
      "componentType": 5126,
      "count": 5667,
      "max": [
        0.984375,
        0.9778609871864319
      ],
      "min": [
        0.015625,
        0.015625
      ],
      "type": "VEC2"
    },
    {
      "bufferView": 0,
      "componentType": 5125,
      "count": 30000,
      "type": "SCALAR"
    }
  ],
  "asset": {
    "extras": {
      "author": "inciprocal (https://sketchfab.com/inciprocal.com)",
      "license": "CC-BY-4.0 (http://creativecommons.org/licenses/by/4.0/)",
      "source": "https://sketchfab.com/3d-models/steampunk-rabbit-figurine-free-f6c41eedf2504b658046961fea3d4a60",
      "title": "Steampunk Rabbit Figurine (Free)"
    },
    "generator": "Sketchfab-13.96.0",
    "version": "2.0"
  },
  "bufferViews": [
    {
      "buffer": 0,
      "byteLength": 120000,
      "name": "floatBufferViews",
      "target": 34963
    },
    {
      "buffer": 0,
      "byteLength": 45336,
      "byteOffset": 120000,
      "byteStride": 8,
      "name": "floatBufferViews",
      "target": 34962
    },
    {
      "buffer": 0,
      "byteLength": 136008,
      "byteOffset": 165336,
      "byteStride": 12,
      "name": "floatBufferViews",
      "target": 34962
    },
    {
      "buffer": 0,
      "byteLength": 90672,
      "byteOffset": 301344,
      "byteStride": 16,
      "name": "floatBufferViews",
      "target": 34962
    }
  ],
  "buffers": [
    {
      "byteLength": 392016,
      "uri": "scene.bin"
    }
  ],
  "extensionsRequired": [
    "KHR_materials_pbrSpecularGlossiness"
  ],
  "extensionsUsed": [
    "KHR_materials_pbrSpecularGlossiness"
  ],
  "images": [
    {
      "uri": "textures/fg_spkRabbit_diffuse.jpeg"
    },
    {
      "uri": "textures/fg_spkRabbit_specularGlossiness.png"
    },
    {
      "uri": "textures/fg_spkRabbit_normal.jpeg"
    },
    {
      "uri": "textures/fg_spkRabbit_occlusion.png"
    }
  ],
  "materials": [
    {
      "doubleSided": true,
      "extensions": {
        "KHR_materials_pbrSpecularGlossiness": {
          "diffuseFactor": [
            1.0,
            1.0,
            1.0,
            1.0
          ],
          "diffuseTexture": {
            "index": 0
          },
          "glossinessFactor": 1.0,
          "specularFactor": [
            0.4090816506454104,
            0.4090816506454104,
            0.4090816506454104
          ],
          "specularGlossinessTexture": {
            "index": 1
          }
        }
      },
      "name": "fg_spkRabbit",
      "normalTexture": {
        "index": 2
      },
      "occlusionTexture": {
        "index": 3
      }
    }
  ],
  "meshes": [
    {
      "name": "Object_0",
      "primitives": [
        {
          "attributes": {
            "NORMAL": 1,
            "POSITION": 0,
            "TANGENT": 2,
            "TEXCOORD_0": 3
          },
          "indices": 4,
          "material": 0,
          "mode": 4
        }
      ]
    }
  ],
  "nodes": [
    {
      "children": [
        1
      ],
      "matrix": [
        0.8372820019721985,
        -1.2140760137523322e-16,
        0.546771228313446,
        0.0,
        0.546771228313446,
        1.859139513387561e-16,
        -0.8372820019721985,
        0.0,
        0.0,
        1.0,
        2.220446049250313e-16,
        0.0,
        0.0,
        0.0,
        0.0,
        1.0
      ],
      "name": "Sketchfab_model"
    },
    {
      "children": [
        2
      ],
      "name": "fg_spkRabbit.obj.cleaner.materialmerger.gles"
    },
    {
      "mesh": 0,
      "name": "Object_2"
    }
  ],
  "samplers": [
    {
      "magFilter": 9729,
      "minFilter": 9987,
      "wrapS": 10497,
      "wrapT": 10497
    }
  ],
  "scene": 0,
  "scenes": [
    {
      "name": "Sketchfab_Scene",
      "nodes": [
        0
      ]
    }
  ],
  "textures": [
    {
      "sampler": 0,
      "source": 0
    },
    {
      "sampler": 0,
      "source": 1
    },
    {
      "sampler": 0,
      "source": 2
    },
    {
      "sampler": 0,
      "source": 3
    }
  ]
}
