{
  "accessors": [
    {
      "bufferView": 2,
      "componentType": 5126,
      "count": 1849,
      "max": [
        29.445833206176758,
        61.14418029785156,
        11.299361228942871
      ],
      "min": [
        -21.277315139770508,
        -93.70268249511719,
        -9.882134437561035
      ],
      "type": "VEC3"
    },
    {
      "bufferView": 2,
      "byteOffset": 22188,
      "componentType": 5126,
      "count": 1849,
      "max": [
        0.9968311190605164,
        0.9788761138916016,
        0.9953365325927734
      ],
      "min": [
        -0.9998806715011597,
        -0.9943245649337769,
        -0.9952355027198792
      ],
      "type": "VEC3"
    },
    {
      "bufferView": 3,
      "componentType": 5126,
      "count": 1849,
      "max": [
        0.9983178973197937,
        0.9943243861198425,
        0.9957000613212585,
        1.0
      ],
      "min": [
        -0.9991708993911743,
        -0.9878308176994324,
        -0.9957001209259033,
        -1.0
      ],
      "type": "VEC4"
    },
    {
      "bufferView": 1,
      "componentType": 5126,
      "count": 1849,
      "max": [
        1.0,
        1.0
      ],
      "min": [
        0.0,
        0.0
      ],
      "type": "VEC2"
    },
    {
      "bufferView": 0,
      "componentType": 5125,
      "count": 7224,
      "type": "SCALAR"
    },
    {
      "bufferView": 2,
      "byteOffset": 44376,
      "componentType": 5126,
      "count": 2292,
      "max": [
        38.19674301147461,
        239.47584533691406,
        53.916664123535156
      ],
      "min": [
        -38.092796325683594,
        -7.774721145629883,
        -39.28181838989258
      ],
      "type": "VEC3"
    },
    {
      "bufferView": 2,
      "byteOffset": 71880,
      "componentType": 5126,
      "count": 2292,
      "max": [
        0.9998478293418884,
        0.9999247193336487,
        0.9997957348823547
      ],
      "min": [
        -0.9999763369560242,
        -1.0,
        -0.9995757937431335
      ],
      "type": "VEC3"
    },
    {
      "bufferView": 3,
      "byteOffset": 29584,
      "componentType": 5126,
      "count": 2292,
      "max": [
        0.9972464442253113,
        0.9999673366546631,
        0.9990001320838928,
        1.0
      ],
      "min": [
        -0.9984760880470276,
        -0.9949471950531006,
        -0.9999173879623413,
        -1.0
      ],
      "type": "VEC4"
    },
    {
      "bufferView": 1,
      "byteOffset": 14792,
      "componentType": 5126,
      "count": 2292,
      "max": [
        0.9965433478355408,
        0.9965433478355408
      ],
      "min": [
        0.003456644481047988,
        0.07373249530792236
      ],
      "type": "VEC2"
    },
    {
      "bufferView": 1,
      "byteOffset": 33128,
      "componentType": 5126,
      "count": 2292,
      "max": [
        0.9965433478355408,
        0.9965433478355408
      ],
      "min": [
        0.003456644481047988,
        0.07373249530792236
      ],
      "type": "VEC2"
    },
    {
      "bufferView": 0,
      "byteOffset": 28896,
      "componentType": 5125,
      "count": 12786,
      "type": "SCALAR"
    }
  ],
  "asset": {
    "extras": {
      "author": "DJMaesen (https://sketchfab.com/bumstrum)",
      "license": "CC-BY-4.0 (http://creativecommons.org/licenses/by/4.0/)",
      "source": "https://sketchfab.com/3d-models/gaurdian-statue-f2656927d6994722bd5a84d364928eb2",
      "title": "Gaurdian statue"
    },
    "generator": "Sketchfab-12.66.0",
    "version": "2.0"
  },
  "bufferViews": [
    {
      "buffer": 0,
      "byteLength": 80040,
      "name": "floatBufferViews",
      "target": 34963
    },
    {
      "buffer": 0,
      "byteLength": 51464,
      "byteOffset": 80040,
      "byteStride": 8,
      "name": "floatBufferViews",
      "target": 34962
    },
    {
      "buffer": 0,
      "byteLength": 99384,
      "byteOffset": 131504,
      "byteStride": 12,
      "name": "floatBufferViews",
      "target": 34962
    },
    {
      "buffer": 0,
      "byteLength": 66256,
      "byteOffset": 230888,
      "byteStride": 16,
      "name": "floatBufferViews",
      "target": 34962
    }
  ],
  "buffers": [
    {
      "byteLength": 297144,
      "uri": "scene.bin"
    }
  ],
  "extensionsRequired": [
    "KHR_materials_pbrSpecularGlossiness"
  ],
  "extensionsUsed": [
    "KHR_materials_pbrSpecularGlossiness"
  ],
  "images": [
    {
      "uri": "textures/stick_diffuse.png"
    },
    {
      "uri": "textures/stick_normal.png"
    },
    {
      "uri": "textures/statue_diffuse.png"
    },
    {
      "uri": "textures/statue_specularGlossiness.png"
    },
    {
      "uri": "textures/statue_normal.png"
    },
    {
      "uri": "textures/statue_occlusion.png"
    }
  ],
  "materials": [
    {
      "extensions": {
        "KHR_materials_pbrSpecularGlossiness": {
          "diffuseFactor": [
            1.0,
            1.0,
            1.0,
            1.0
          ],
          "diffuseTexture": {
            "index": 0
          },
          "glossinessFactor": 0.2761051829268293,
          "specularFactor": [
            0.1663490853658537,
            0.1663490853658537,
            0.1663490853658537
          ]
        }
      },
      "name": "stick",
      "normalTexture": {
        "index": 1
      }
    },
    {
      "extensions": {
        "KHR_materials_pbrSpecularGlossiness": {
          "diffuseFactor": [
            1.0,
            1.0,
            1.0,
            1.0
          ],
          "diffuseTexture": {
            "index": 2
          },
          "glossinessFactor": 0.6541539634146342,
          "specularFactor": [
            1.0,
            1.0,
            1.0
          ],
          "specularGlossinessTexture": {
            "index": 3
          }
        }
      },
      "name": "statue",
      "normalTexture": {
        "index": 4
      },
      "occlusionTexture": {
        "index": 5
      }
    }
  ],
  "meshes": [
    {
      "name": "stok_stick_0",
      "primitives": [
        {
          "attributes": {
            "NORMAL": 1,
            "POSITION": 0,
            "TANGENT": 2,
            "TEXCOORD_0": 3
          },
          "indices": 4,
          "material": 0,
          "mode": 4
        }
      ]
    },
    {
      "name": "gaurdian_statue_0",
      "primitives": [
        {
          "attributes": {
            "NORMAL": 6,
            "POSITION": 5,
            "TANGENT": 7,
            "TEXCOORD_0": 8,
            "TEXCOORD_1": 9
          },
          "indices": 10,
          "material": 1,
          "mode": 4
        }
      ]
    }
  ],
  "nodes": [
    {
      "children": [
        1
      ],
      "matrix": [
        1.0,
        0.0,
        0.0,
        0.0,
        0.0,
        2.220446049250313e-16,
        -1.0,
        0.0,
        0.0,
        1.0,
        2.220446049250313e-16,
        0.0,
        0.0,
        0.0,
        0.0,
        1.0
      ],
      "name": "Sketchfab_model"
    },
    {
      "children": [
        2
      ],
      "matrix": [
        1.0,
        0.0,
        0.0,
        0.0,
        0.0,
        0.0,
        1.0,
        0.0,
        0.0,
        -1.0,
        0.0,
        0.0,
        0.0,
        0.0,
        0.0,
        1.0
      ],
      "name": "3959f0a9107547a5aeeb178aeef5b530.fbx"
    },
    {
      "children": [
        3,
        5
      ],
      "name": "RootNode"
    },
    {
      "children": [
        4
      ],
      "matrix": [
        1.0,
        0.0,
        0.0,
        0.0,
        0.0,
        1.0,
        0.0,
        0.0,
        0.0,
        0.0,
        1.0,
        0.0,
        -1.672865629196167,
        87.78297424316406,
        35.03706741333008,
        1.0
      ],
      "name": "stok"
    },
    {
      "mesh": 0,
      "name": "stok_stick_0"
    },
    {
      "children": [
        6
      ],
      "matrix": [
        1.0,
        0.0,
        0.0,
        0.0,
        0.0,
        1.0,
        0.0,
        0.0,
        0.0,
        0.0,
        1.0,
        0.0,
        0.0,
        5.76931619644165,
        -12.62695026397705,
        1.0
      ],
      "name": "gaurdian"
    },
    {
      "mesh": 1,
      "name": "gaurdian_statue_0"
    }
  ],
  "samplers": [
    {
      "magFilter": 9729,
      "minFilter": 9987,
      "wrapS": 10497,
      "wrapT": 10497
    }
  ],
  "scene": 0,
  "scenes": [
    {
      "name": "Sketchfab_Scene",
      "nodes": [
        0
      ]
    }
  ],
  "textures": [
    {
      "sampler": 0,
      "source": 0
    },
    {
      "sampler": 0,
      "source": 1
    },
    {
      "sampler": 0,
      "source": 2
    },
    {
      "sampler": 0,
      "source": 3
    },
    {
      "sampler": 0,
      "source": 4
    },
    {
      "sampler": 0,
      "source": 5
    }
  ]
}
